<?xml version="1.0" encoding="UTF-8" standalone="no"?>
<svg
   xmlns:dc="http://purl.org/dc/elements/1.1/"
   xmlns:cc="http://creativecommons.org/ns#"
   xmlns:rdf="http://www.w3.org/1999/02/22-rdf-syntax-ns#"
   xmlns:svg="http://www.w3.org/2000/svg"
   xmlns="http://www.w3.org/2000/svg"
   xmlns:sodipodi="http://sodipodi.sourceforge.net/DTD/sodipodi-0.dtd"
   xmlns:inkscape="http://www.inkscape.org/namespaces/inkscape"
   version="1.1"
   id="_x32_"
   x="0px"
   y="0px"
   viewBox="0 0 512 512"
   style="width: 256px; height: 256px; opacity: 1;"
   xml:space="preserve"
   sodipodi:docname="icon.svg"
   inkscape:version="1.0.1 (3bc2e813f5, 2020-09-07)"
   inkscape:export-filename="C:\Local\tomato-timer\tomato-timer\public\pomodoroDown - コピー.png"
   inkscape:export-xdpi="200.0625"
   inkscape:export-ydpi="200.0625"><metadata
   id="metadata15"><rdf:RDF><cc:Work
       rdf:about=""><dc:format>image/svg+xml</dc:format><dc:type
         rdf:resource="http://purl.org/dc/dcmitype/StillImage" /><dc:title></dc:title></cc:Work></rdf:RDF></metadata><defs
   id="defs13" /><sodipodi:namedview
   pagecolor="#ffffff"
   bordercolor="#666666"
   borderopacity="1"
   objecttolerance="10"
   gridtolerance="10"
   guidetolerance="10"
   inkscape:pageopacity="0"
   inkscape:pageshadow="2"
   inkscape:window-width="1920"
   inkscape:window-height="1001"
   id="namedview11"
   showgrid="false"
   inkscape:zoom="1.4355469"
   inkscape:cx="256"
   inkscape:cy="286.52048"
   inkscape:window-x="-9"
   inkscape:window-y="-9"
   inkscape:window-maximized="1"
   inkscape:current-layer="g8"
   inkscape:document-rotation="0" />
<style
   type="text/css"
   id="style2">
	.st0{fill:#4B4B4B;}
</style>
<g
   id="g8">
	<ellipse
   style="fill:#d0282c;fill-opacity:1;stroke-width:0.982267"
   id="path17"
   cx="-269.60486"
   cy="320.35645"
   rx="188.42993"
   ry="189.82314"
   transform="scale(-1,1)" />
	<path
   class="st0"
   d="m 4.9007928,144.75363 c 0.31803,-0.24389 0.68625,-0.43555 1.09983,-0.56713 2.40522,-0.76515 6.4894502,0.35638 12.8451302,3.5215 2.0569,0.87771 4.25223,1.90029 6.58803,2.98837 5.36111,2.493 11.43933,5.32034 18.23504,7.53325 10.44597,3.43161 21.2516,5.50003 31.25063,5.98968 8.81277,0.46514 18.08567,-0.28858 27.505717,-1.8069 0.75299,-0.13669 1.54366,-0.25393 2.2775,-0.40134 -9.606917,-6.17407 -18.464147,-14.01589 -25.617617,-22.69358 -8.81478,-10.58794 -16.11743,-23.50807 -20.55919,-36.38447 -6.55984,-18.90079 -6.73856,-35.292027 -3.52198,-41.710253 0.73653,-1.471551 1.62422,-2.38884 2.8802,-2.788417 0.0114,-0.0037 0.0219,-0.007 0.0353,-0.01118 2.72379,-0.657722 6.39968,2.125869 11.22982,8.50788 2.06681,2.505317 4.23027,5.479393 6.58362,8.720467 2.88419,3.966269 6.1529,8.465024 9.8591,12.910647 1.84057,2.282414 3.68202,4.478499 5.52758,6.581978 0.0141,0.01651 0.0302,0.03552 0.0445,0.0509 3.01723,3.444376 6.03711,6.580428 9.046237,9.531018 1.19798,1.17617 2.39983,2.32172 3.63166,3.44934 1.30746,1.19381 2.61473,2.40026 3.91496,3.49877 7.32733,6.21927 15.81804,11.91943 24.55958,16.4883 2.42572,1.21897 4.70754,2.27593 6.85089,3.19121 2.90452,1.24294 6.16586,1.39748 9.18476,0.43704 5.15062,-1.63862 8.77157,-6.11296 9.24434,-11.61313 0.53674,-8.93734 0.0463,-17.45869 -1.46289,-25.335884 -1.54356,-8.34162 -4.4574,-17.147672 -8.42811,-25.475827 -2.66559,-5.604648 -5.72705,-10.481009 -8.42393,-14.775512 -1.0646,-1.697117 -2.06547,-3.292782 -2.95163,-4.788521 -3.86623,-5.849158 -5.07182,-9.325261 -3.91343,-11.278367 0.36747,-0.596475 0.97978,-1.036835 1.81837,-1.303623 2.20223,-0.700625 5.90914,-0.22086 10.72863,1.38773 4.78015,1.870858 14.14828,6.387293 23.16701,15.620655 8.45142,8.581673 15.4526,19.713014 19.71443,31.344372 4.37565,11.655997 6.31555,24.782657 5.462,36.959497 -0.41711,5.38489 -1.12844,10.54752 -2.2001,15.46483 -32.87274,14.48152 -61.26061,37.61767 -82.09102,66.91145 l -0.10589,0.0663 c -13.167397,2.02628 -27.405167,1.53248 -40.089887,-1.39573 -14.57706,-3.2854 -28.85918,-9.92186 -40.21427,-18.68161 -12.40543,-9.44561 -18.9899402,-19.8742 -21.8145102,-25.25616 -3.5816,-7.57677 -4.27114,-13.0031 -1.8904,-14.88755 z"
   style="fill:#007a47;fill-opacity:1"
   id="path6" />
</g>
</svg>
