<?xml version="1.0" standalone="no"?>
<!DOCTYPE svg PUBLIC "-//W3C//DTD SVG 20010904//EN"
 "http://www.w3.org/TR/2001/REC-SVG-20010904/DTD/svg10.dtd">
<svg version="1.0" xmlns="http://www.w3.org/2000/svg"
 width="800.000000pt" height="800.000000pt" viewBox="0 0 800.000000 800.000000"
 preserveAspectRatio="xMidYMid meet">
<metadata>
Created by potrace 1.14, written by Peter Selinger 2001-2017
</metadata>
<g transform="translate(0.000000,800.000000) scale(0.100000,-0.100000)"
fill="#000000" stroke="none">
<path d="M2135 7424 c-5 -1 -22 -5 -36 -8 -63 -14 -43 -79 87 -286 132 -213
224 -430 250 -598 3 -20 8 -40 10 -44 18 -29 22 -352 6 -413 -24 -86 -135
-155 -224 -141 -57 9 -194 77 -323 160 -60 38 -112 73 -115 76 -3 3 -25 21
-50 40 -159 123 -413 399 -550 599 -88 129 -190 245 -234 268 -81 42 -128 -44
-127 -236 0 -46 5 -109 10 -140 6 -31 12 -69 15 -86 2 -16 9 -45 15 -63 5 -18
10 -35 10 -37 0 -11 32 -121 41 -140 5 -11 19 -45 30 -75 12 -30 46 -102 77
-160 133 -253 309 -456 538 -622 5 -4 24 -19 40 -32 26 -21 27 -25 10 -24 -19
0 -63 -5 -190 -22 -63 -9 -349 -6 -375 3 -8 3 -33 8 -55 11 -160 20 -339 76
-560 176 -304 138 -348 147 -374 79 -21 -57 37 -211 128 -334 56 -77 180 -206
239 -249 20 -15 62 -45 92 -67 75 -55 295 -161 410 -199 182 -59 284 -74 500
-75 172 0 265 5 274 16 2 2 36 47 77 99 288 370 636 658 1054 870 l150 76 12
60 c88 442 -57 927 -373 1247 -122 124 -285 226 -409 257 -27 6 -54 13 -60 15
-5 1 -14 1 -20 -1z"/>
<path d="M3998 5955 c-2 -2 -34 -6 -73 -9 -38 -4 -97 -11 -130 -16 -33 -5 -78
-12 -100 -15 -237 -35 -579 -153 -835 -287 -755 -396 -1300 -1091 -1506 -1922
-14 -55 -27 -114 -30 -131 -3 -16 -9 -52 -14 -80 -5 -27 -11 -70 -14 -95 -3
-25 -9 -74 -13 -110 -10 -86 -10 -506 0 -595 12 -100 37 -267 43 -287 3 -10 7
-30 10 -45 3 -16 7 -36 10 -45 3 -9 7 -25 9 -37 15 -79 94 -320 142 -436 98
-235 257 -503 418 -705 362 -453 859 -796 1410 -973 140 -45 283 -78 479 -111
86 -15 210 -21 411 -21 227 0 365 9 461 30 12 3 39 7 60 11 235 36 563 148
814 277 758 391 1311 1092 1519 1922 11 44 23 96 26 115 3 19 10 53 15 75 5
22 12 65 15 95 3 30 8 62 10 70 17 64 25 448 12 601 -31 384 -132 747 -302
1089 -75 151 -215 383 -246 410 -3 3 -10 12 -15 21 -9 17 -37 52 -118 153 -70
86 -285 299 -386 383 -74 61 -227 174 -286 210 -144 90 -266 155 -404 215
-167 74 -373 143 -516 173 -10 2 -52 11 -92 19 -83 18 -107 22 -307 45 -61 7
-470 12 -477 6z"/>
</g>
</svg>
