<?xml version="1.0" encoding="UTF-8" standalone="no"?>
<svg
   xmlns:dc="http://purl.org/dc/elements/1.1/"
   xmlns:cc="http://creativecommons.org/ns#"
   xmlns:rdf="http://www.w3.org/1999/02/22-rdf-syntax-ns#"
   xmlns:svg="http://www.w3.org/2000/svg"
   xmlns="http://www.w3.org/2000/svg"
   xmlns:sodipodi="http://sodipodi.sourceforge.net/DTD/sodipodi-0.dtd"
   xmlns:inkscape="http://www.inkscape.org/namespaces/inkscape"
   version="1.1"
   id="_x32_"
   x="0px"
   y="0px"
   viewBox="0 0 512 512"
   style="width: 256px; height: 256px; opacity: 1;"
   xml:space="preserve"
   sodipodi:docname="27_tomato.svg"
   inkscape:version="1.0.1 (3bc2e813f5, 2020-09-07)"><metadata
   id="metadata15"><rdf:RDF><cc:Work
       rdf:about=""><dc:format>image/svg+xml</dc:format><dc:type
         rdf:resource="http://purl.org/dc/dcmitype/StillImage" /><dc:title></dc:title></cc:Work></rdf:RDF></metadata><defs
   id="defs13" /><sodipodi:namedview
   pagecolor="#ffffff"
   bordercolor="#666666"
   borderopacity="1"
   objecttolerance="10"
   gridtolerance="10"
   guidetolerance="10"
   inkscape:pageopacity="0"
   inkscape:pageshadow="2"
   inkscape:window-width="1920"
   inkscape:window-height="1001"
   id="namedview11"
   showgrid="false"
   inkscape:zoom="0.86938226"
   inkscape:cx="277.25882"
   inkscape:cy="385.34661"
   inkscape:window-x="-9"
   inkscape:window-y="-9"
   inkscape:window-maximized="1"
   inkscape:current-layer="g8"
   inkscape:document-rotation="0" />
<style
   type="text/css"
   id="style2">
	.st0{fill:#4B4B4B;}
</style>
<g
   id="g8">
	
	<path
   class="st0"
   d="m 19.346156,140.01898 c 0.262239,-0.2229 0.56755,-0.39997 0.912018,-0.52419 2.003303,-0.72229 5.449927,0.2119 10.839723,2.93289 1.74159,0.74973 3.601981,1.6265 5.581412,2.55943 4.543093,2.13735 9.693894,4.56142 15.43513,6.42533 8.825653,2.8919 17.927719,4.56125 26.323934,4.83467 7.400744,0.27086 15.164843,-0.55347 23.038187,-2.0628 0.62909,-0.13426 1.29012,-0.25181 1.90292,-0.39545 C 95.206778,148.43547 87.631994,141.58131 81.470815,133.95321 73.880725,124.64733 67.515776,113.23515 63.551329,101.81516 57.698567,85.052886 57.24478,70.42605 59.823848,64.644927 c 0.59052,-1.325462 1.318105,-2.1587 2.364209,-2.535887 0.0095,-0.0034 0.01824,-0.0067 0.0294,-0.01061 2.272508,-0.631608 5.407438,1.792699 9.57725,7.409833 1.780083,2.202272 3.649915,4.821341 5.683978,7.675606 2.492781,3.49285 5.31796,7.45467 8.509122,11.361891 1.586174,2.007015 3.171489,3.936971 4.758532,5.784192 0.01211,0.01442 0.02596,0.03123 0.03828,0.04467 2.594694,3.024841 5.1859,5.774471 7.764653,8.358761 1.026648,1.03016 2.056003,2.03293 3.110163,3.01923 1.11882,1.04413 2.23771,2.09951 3.34871,3.05871 6.26145,5.43101 13.48908,10.37969 20.90616,14.31453 2.05728,1.04829 3.99085,1.95433 5.80566,2.73617 2.45932,1.06184 5.19778,1.14642 7.71223,0.24016 4.28992,-1.54681 7.24422,-5.59954 7.53883,-10.51639 0.28454,-7.98567 -0.28484,-15.58326 -1.69678,-22.589212 -1.44939,-7.41993 -4.05675,-15.231984 -7.54175,-22.600188 -2.3398,-4.958727 -4.99813,-9.260959 -7.33989,-13.049825 -0.92444,-1.497316 -1.79355,-2.905131 -2.56458,-4.225631 -3.35143,-5.157319 -4.42709,-8.240136 -3.49164,-10.002305 0.29716,-0.538386 0.80258,-0.941442 1.50106,-1.193284 1.83424,-0.661366 4.95246,-0.293813 9.02484,1.063055 4.04427,1.591593 11.98594,5.469388 19.72199,13.562921 7.24812,7.521162 13.32702,17.341725 17.11746,27.653387 3.88638,10.331799 5.7569,22.016062 5.2667,32.898282 -0.25004,4.81303 -0.75101,9.43248 -1.55874,13.83891 -27.30507,13.46312 -50.68775,34.57745 -67.61714,61.06402 l -0.0876,0.0608 c -11.007185,2.02407 -22.958925,1.81631 -33.653102,-0.58968 -12.288085,-2.69418 -24.3909,-8.38378 -34.077895,-16.01637 -10.580736,-8.22755 -16.297126,-17.42772 -18.766142,-22.18509 -3.144693,-6.7039 -3.823672,-11.53582 -1.861654,-13.25671 z"
   style="fill:#668e25;fill-opacity:1;stroke-width:0.865424"
   id="path6" />
</g>
</svg>
