<?xml version="1.0" encoding="UTF-8" standalone="no"?>
<svg
   xmlns:dc="http://purl.org/dc/elements/1.1/"
   xmlns:cc="http://creativecommons.org/ns#"
   xmlns:rdf="http://www.w3.org/1999/02/22-rdf-syntax-ns#"
   xmlns:svg="http://www.w3.org/2000/svg"
   xmlns="http://www.w3.org/2000/svg"
   xmlns:sodipodi="http://sodipodi.sourceforge.net/DTD/sodipodi-0.dtd"
   xmlns:inkscape="http://www.inkscape.org/namespaces/inkscape"
   viewBox="0 0 512 512"
   style="width:256px;height:256px;opacity:1"
   xml:space="preserve"
   version="1.1"
   id="svg4"
   sodipodi:docname="27_tomato_down.svg"
   inkscape:export-filename="C:\Local\tomato-timer\tomato-timer\public\27_tomato_.png"
   inkscape:export-xdpi="11.0625"
   inkscape:export-ydpi="11.0625"
   inkscape:version="1.0.1 (3bc2e813f5, 2020-09-07)"><metadata
     id="metadata10"><rdf:RDF><cc:Work
         rdf:about=""><dc:format>image/svg+xml</dc:format><dc:type
           rdf:resource="http://purl.org/dc/dcmitype/StillImage" /><dc:title></dc:title></cc:Work></rdf:RDF></metadata><defs
     id="defs8" /><sodipodi:namedview
     pagecolor="#ffffff"
     bordercolor="#666666"
     borderopacity="1"
     objecttolerance="10"
     gridtolerance="10"
     guidetolerance="10"
     inkscape:pageopacity="0"
     inkscape:pageshadow="2"
     inkscape:window-width="1920"
     inkscape:window-height="1001"
     id="namedview6"
     showgrid="false"
     inkscape:zoom="1.5277223"
     inkscape:cx="255.32005"
     inkscape:cy="253.62019"
     inkscape:window-x="-9"
     inkscape:window-y="-9"
     inkscape:window-maximized="1"
     inkscape:current-layer="svg4" /><path
     d="m -0.16070785,196.0132 c 0.20512087,-0.27622 0.46346177,-0.51752 0.77075115,-0.71572 1.7890236,-1.15505 5.3580065,-1.01942 11.2219527,0.41936 1.865092,0.33913 3.875452,0.77405 6.013834,1.23893 4.907059,1.0593 10.47132,2.26245 16.484488,2.78723 9.250348,0.83246 18.494733,0.41216 26.736956,-1.21053 7.272274,-1.40081 14.651924,-3.95021 21.984438,-7.19277 0.582735,-0.27206 1.200249,-0.53573 1.764396,-0.81273 -9.16694,-3.37848 -18.089608,-8.35281 -25.808629,-14.39938 -9.488863,-7.36011 -18.25787,-17.04781 -24.690188,-27.28318 -9.472643,-15.01598 -13.205366,-29.16596 -11.992908,-35.37895 0.276593,-1.42473 0.79855,-2.40015 1.732935,-3.00278 l 0.02698,-0.0165 c 2.0716,-1.1269 5.671532,0.52976 10.99843,5.06572 2.229721,1.74515 4.640715,3.87539 7.264819,6.19967 3.213884,2.8429 6.85871,6.06764 10.846808,9.15668 a 182.984,182.984 0 0 0 5.93717,4.56544 l 0.04812,0.0351 a 150.547,150.547 0 0 0 9.44515,6.39726 123.7,123.7 0 0 0 3.709643,2.243 c 1.326144,0.7653 2.653038,1.54274 3.952041,2.22604 7.321265,3.88361 15.477295,7.07982 23.58938,9.24551 a 99.624,99.624 0 0 0 6.272657,1.35981 10.449,10.449 0 0 0 7.56833,-1.50098 c 3.83205,-2.47239 5.79861,-7.08602 4.98019,-11.94238 -1.51876,-7.84543 -3.78311,-15.1195 -6.73515,-21.62928 -3.08197,-6.90364 -7.37925,-13.928 -12.432591,-20.32418 -3.395333,-4.304541 -6.952948,-7.898361 -10.087487,-11.064389 a 206.419,206.419 0 0 1 -3.448703,-3.539939 c -4.425187,-4.271015 -6.167133,-7.032951 -5.652461,-8.96012 0.169114,-0.592221 0.570515,-1.098492 1.193938,-1.501049 1.639276,-1.056844 4.760144,-1.399673 9.032813,-0.994428 4.299449,0.64127 12.909281,2.633541 22.267541,8.778896 8.75409,5.697792 16.88653,13.899603 22.90006,23.094519 6.1106,9.19303 10.56197,20.15669 12.53147,30.87023 0.8391,4.74588 1.39096,9.35897 1.59503,13.83478 -23.57666,19.26024 -41.61074,45.09312 -52.147568,74.70945 l -0.07225,0.0783 c -10.269365,4.44914 -21.961826,6.93508 -32.922972,6.99637 -12.579077,0.13925 -25.65185,-2.68233 -36.807399,-7.93962 C 15.751581,220.2694 8.1115572,212.59124 4.6357453,208.51157 0.06327961,202.68686 -1.6852812,198.13145 -0.16070785,196.0132 Z"
     style="fill:#668e25;fill-opacity:1;stroke-width:0.865424"
     id="path2" /></svg>
