<?xml version="1.0" encoding="UTF-8" standalone="no"?>
<svg
   xmlns:dc="http://purl.org/dc/elements/1.1/"
   xmlns:cc="http://creativecommons.org/ns#"
   xmlns:rdf="http://www.w3.org/1999/02/22-rdf-syntax-ns#"
   xmlns:svg="http://www.w3.org/2000/svg"
   xmlns="http://www.w3.org/2000/svg"
   xmlns:sodipodi="http://sodipodi.sourceforge.net/DTD/sodipodi-0.dtd"
   xmlns:inkscape="http://www.inkscape.org/namespaces/inkscape"
   viewBox="0 0 512 512"
   style="width:256px;height:256px;opacity:1"
   xml:space="preserve"
   version="1.1"
   id="svg4"
   sodipodi:docname="27_tomato_rev.svg"
   inkscape:export-filename="C:\Local\tomato-timer\tomato-timer\public\27_tomato_rev.png"
   inkscape:export-xdpi="11.0625"
   inkscape:export-ydpi="11.0625"
   inkscape:version="1.0.1 (3bc2e813f5, 2020-09-07)"><metadata
     id="metadata10"><rdf:RDF><cc:Work
         rdf:about=""><dc:format>image/svg+xml</dc:format><dc:type
           rdf:resource="http://purl.org/dc/dcmitype/StillImage" /><dc:title></dc:title></cc:Work></rdf:RDF></metadata><defs
     id="defs8" /><sodipodi:namedview
     pagecolor="#ffffff"
     bordercolor="#666666"
     borderopacity="1"
     objecttolerance="10"
     gridtolerance="10"
     guidetolerance="10"
     inkscape:pageopacity="0"
     inkscape:pageshadow="2"
     inkscape:window-width="1920"
     inkscape:window-height="1001"
     id="namedview6"
     showgrid="false"
     inkscape:zoom="1.5277223"
     inkscape:cx="255.32005"
     inkscape:cy="253.62019"
     inkscape:window-x="-9"
     inkscape:window-y="-9"
     inkscape:window-maximized="1"
     inkscape:current-layer="svg4" /><path
     d="m 491.29411,140.019 c -0.262,-0.223 -0.568,-0.4 -0.912,-0.524 -2.003,-0.723 -5.45,0.212 -10.84,2.933 -1.741,0.75 -3.602,1.626 -5.581,2.56 -4.543,2.136 -9.694,4.56 -15.435,6.424 -8.826,2.892 -17.928,4.562 -26.324,4.835 -7.401,0.271 -15.165,-0.553 -23.039,-2.063 -0.629,-0.134 -1.29,-0.252 -1.902,-0.395 8.172,-5.354 15.747,-12.208 21.908,-19.836 7.59,-9.306 13.955,-20.718 17.92,-32.138 5.852,-16.762 6.306,-31.389 3.727,-37.17 -0.59,-1.326 -1.318,-2.159 -2.364,-2.536 l -0.03,-0.01 c -2.272,-0.632 -5.407,1.792 -9.577,7.41 -1.78,2.202 -3.65,4.82 -5.684,7.675 -2.492,3.493 -5.318,7.455 -8.509,11.362 a -182.984,182.984 0 0 1 -4.758,5.784 l -0.039,0.045 a -150.547,150.547 0 0 1 -7.764,8.358 -123.7,123.7 0 0 1 -3.11,3.02 c -1.12,1.044 -2.238,2.1 -3.35,3.058 -6.26,5.431 -13.488,10.38 -20.905,14.315 a -99.624,99.624 0 0 1 -5.806,2.736 -10.449,10.449 0 0 1 -7.712,0.24 c -4.29,-1.547 -7.244,-5.6 -7.539,-10.516 -0.285,-7.986 0.285,-15.583 1.697,-22.59 1.45,-7.42 4.057,-15.231 7.542,-22.6 2.34,-4.958 4.998,-9.26 7.34,-13.05 a -206.419,206.419 0 0 0 2.564,-4.225 c 3.351,-5.157 4.427,-8.24 3.492,-10.002 -0.298,-0.539 -0.803,-0.942 -1.501,-1.194 -1.835,-0.661 -4.953,-0.293 -9.025,1.063 -4.045,1.592 -11.986,5.47 -19.722,13.563 -7.248,7.521 -13.327,17.342 -17.118,27.654 -3.886,10.332 -5.757,22.016 -5.266,32.898 0.25,4.813 0.75,9.432 1.558,13.839 27.305,13.463 50.688,34.577 67.617,61.064 l 0.088,0.06 c 11.007,2.025 22.959,1.817 33.653,-0.589 12.288,-2.694 24.391,-8.384 34.078,-16.016 10.58,-8.228 16.297,-17.428 18.766,-22.185 3.145,-6.704 3.824,-11.536 1.862,-13.257 z"
     style="fill:#668e25;fill-opacity:1;stroke-width:0.865424"
     id="path2" /></svg>
