<?xml version="1.0" encoding="UTF-8" standalone="no"?>
<svg
   xmlns:dc="http://purl.org/dc/elements/1.1/"
   xmlns:cc="http://creativecommons.org/ns#"
   xmlns:rdf="http://www.w3.org/1999/02/22-rdf-syntax-ns#"
   xmlns:svg="http://www.w3.org/2000/svg"
   xmlns="http://www.w3.org/2000/svg"
   xmlns:sodipodi="http://sodipodi.sourceforge.net/DTD/sodipodi-0.dtd"
   xmlns:inkscape="http://www.inkscape.org/namespaces/inkscape"
   viewBox="0 0 512 512"
   style="width:256px;height:256px;opacity:1"
   xml:space="preserve"
   version="1.1"
   id="svg4"
   sodipodi:docname="27_tomato_rev.svg"
   inkscape:export-filename="C:\Local\tomato-timer\tomato-timer\public\27_tomato_rev.png"
   inkscape:export-xdpi="11.06"
   inkscape:export-ydpi="11.06"
   inkscape:version="1.0.1 (3bc2e813f5, 2020-09-07)"><metadata
     id="metadata10"><rdf:RDF><cc:Work
         rdf:about=""><dc:format>image/svg+xml</dc:format><dc:type
           rdf:resource="http://purl.org/dc/dcmitype/StillImage" /><dc:title /></cc:Work></rdf:RDF></metadata><defs
     id="defs8" /><sodipodi:namedview
     pagecolor="#ffffff"
     bordercolor="#666666"
     borderopacity="1"
     objecttolerance="10"
     gridtolerance="10"
     guidetolerance="10"
     inkscape:pageopacity="0"
     inkscape:pageshadow="2"
     inkscape:window-width="1920"
     inkscape:window-height="1001"
     id="namedview6"
     showgrid="false"
     inkscape:zoom="1.4707031"
     inkscape:cx="256"
     inkscape:cy="235.55422"
     inkscape:window-x="-9"
     inkscape:window-y="-9"
     inkscape:window-maximized="1"
     inkscape:current-layer="svg4"
     inkscape:document-rotation="0" /><path
     d="m 470.47872,135.69192 c -0.23874,-0.19402 -0.51588,-0.34603 -0.82592,-0.44989 -1.80524,-0.60562 -4.86764,0.30024 -9.63066,2.84217 -1.54111,0.70582 -3.18692,1.52671 -4.93704,2.40186 -4.01775,2.00175 -8.57316,4.27331 -13.66738,6.05625 -7.83111,2.7646 -15.93378,4.44239 -23.43372,4.85703 -6.61051,0.39264 -13.56777,-0.18622 -20.6373,-1.37608 -0.565,-0.10703 -1.1583,-0.19905 -1.70828,-0.31445 7.19645,-4.95218 13.82876,-11.23313 19.1813,-18.17724 6.5959,-8.47318 12.05392,-18.80409 15.36635,-29.0934 4.89074,-15.103044 4.99939,-28.187865 2.57647,-33.303306 -0.55436,-1.173371 -1.22207,-1.903227 -2.16479,-2.218988 l -0.027,-0.0084 c -2.04386,-0.518805 -4.7971,1.711792 -8.41066,6.818648 -1.54647,2.004613 -3.16493,4.382931 -4.92519,6.976444 -2.15672,3.17315 -4.60248,6.772342 -7.37564,10.329783 a 163.61815,163.61815 0 0 1 -4.13583,5.267197 l -0.034,0.04102 a 134.61407,134.61407 0 0 1 -6.7707,7.629262 110.60839,110.60839 0 0 1 -2.71879,2.76287 c -0.97999,0.95603 -1.95795,1.92274 -2.93255,2.80173 -5.48568,4.98215 -11.84648,9.5531 -18.39686,13.22143 a 89.080436,89.080436 0 0 1 -5.1346,2.56378 9.343145,9.343145 0 0 1 -6.88916,0.37123 c -3.86641,-1.29575 -6.58944,-4.85884 -6.95303,-9.24744 -0.41704,-7.13318 -0.0618,-13.93599 1.05801,-20.228486 1.14545,-6.662463 3.31723,-13.697963 6.28287,-20.356183 1.99109,-4.479677 4.27974,-8.379393 6.29634,-11.814994 a 184.57294,184.57294 0 0 0 2.20621,-3.828974 c 2.8908,-4.678111 3.79003,-7.455976 2.9184,-9.012094 -0.27734,-0.475775 -0.73697,-0.825771 -1.36605,-1.03686 -1.65381,-0.553609 -4.43363,-0.161293 -8.04618,1.133623 -3.58363,1.505331 -10.60358,5.13336 -17.35463,12.525162 -6.32642,6.870555 -11.56111,15.773409 -14.7405,25.068699 -3.26392,9.315098 -4.69907,19.797857 -4.03905,29.515697 0.32128,4.29742 0.8621,8.41635 1.67394,12.3395 24.68244,11.48028 46.01434,29.87973 61.68595,53.21343 l 0.0799,0.0519 c 9.88071,1.58657 20.5608,1.15779 30.07166,-1.21029 10.92994,-2.65795 21.63363,-7.99034 30.13812,-15.00968 9.29066,-7.57026 14.21436,-15.91064 16.32484,-20.21325 2.67521,-6.05685 3.18402,-10.39014 1.39515,-11.88874 z"
     style="fill:#668e25;fill-opacity:1;stroke-width:0.773833"
     id="path2" /></svg>
