<?xml version="1.0" encoding="UTF-8" standalone="no"?>
<svg
   xmlns:dc="http://purl.org/dc/elements/1.1/"
   xmlns:cc="http://creativecommons.org/ns#"
   xmlns:rdf="http://www.w3.org/1999/02/22-rdf-syntax-ns#"
   xmlns:svg="http://www.w3.org/2000/svg"
   xmlns="http://www.w3.org/2000/svg"
   xmlns:sodipodi="http://sodipodi.sourceforge.net/DTD/sodipodi-0.dtd"
   xmlns:inkscape="http://www.inkscape.org/namespaces/inkscape"
   viewBox="0 0 512 512"
   style="width:256px;height:256px;opacity:1"
   xml:space="preserve"
   version="1.1"
   id="svg4"
   sodipodi:docname="27_tomato.svg"
   inkscape:export-filename="C:\Local\tomato-timer\tomato-timer\public\27_tomato.png"
   inkscape:export-xdpi="11.06"
   inkscape:export-ydpi="11.06"
   inkscape:version="1.0.1 (3bc2e813f5, 2020-09-07)"><metadata
     id="metadata10"><rdf:RDF><cc:Work
         rdf:about=""><dc:format>image/svg+xml</dc:format><dc:type
           rdf:resource="http://purl.org/dc/dcmitype/StillImage" /></cc:Work></rdf:RDF></metadata><defs
     id="defs8" /><sodipodi:namedview
     pagecolor="#ffffff"
     bordercolor="#666666"
     borderopacity="1"
     objecttolerance="10"
     gridtolerance="10"
     guidetolerance="10"
     inkscape:pageopacity="0"
     inkscape:pageshadow="2"
     inkscape:window-width="1920"
     inkscape:window-height="1017"
     id="namedview6"
     showgrid="false"
     inkscape:zoom="1.4707031"
     inkscape:cx="256"
     inkscape:cy="235.55422"
     inkscape:window-x="-8"
     inkscape:window-y="-8"
     inkscape:window-maximized="1"
     inkscape:current-layer="svg4"
     inkscape:document-rotation="0" /><g
     id="g846"
     transform="rotate(-15,224.12827,231.48158)"><path
       d="m 33.547782,119.3732 c 0.238742,-0.19402 0.515883,-0.34603 0.825917,-0.44989 1.805243,-0.60562 4.86764,0.30024 9.630668,2.84217 1.541103,0.70582 3.186918,1.52671 4.93704,2.40186 4.017749,2.00175 8.57316,4.27331 13.667372,6.05625 7.831115,2.7646 15.933784,4.44239 23.433721,4.85703 6.61051,0.39264 13.567769,-0.18622 20.6373,-1.37608 0.565,-0.10703 1.1583,-0.19905 1.70828,-0.31445 C 101.19163,128.43791 94.559328,122.15696 89.206779,115.21285 82.610888,106.73967 77.152859,96.408757 73.840436,86.119449 68.949698,71.0164 68.841043,57.931579 71.263963,52.816138 c 0.554364,-1.173371 1.222074,-1.903227 2.16479,-2.218988 l 0.02702,-0.0084 c 2.043861,-0.518805 4.797099,1.711792 8.410663,6.818648 1.546465,2.004613 3.164932,4.382931 4.925188,6.976444 2.156716,3.17315 4.602478,6.772342 7.375643,10.329783 a 163.61815,163.61815 0 0 0 4.135826,5.267197 l 0.03396,0.04102 a 134.61407,134.61407 0 0 0 6.770707,7.629265 110.60839,110.60839 0 0 0 2.71878,2.762869 c 0.97999,0.956024 1.95795,1.922743 2.93255,2.801725 5.48568,4.982155 11.84648,9.553099 18.39686,13.221439 a 89.080436,89.080436 0 0 0 5.1346,2.56378 9.343145,9.343145 0 0 0 6.88916,0.37123 c 3.86641,-1.29575 6.58944,-4.85885 6.95303,-9.24745 0.41704,-7.133174 0.0618,-13.93599 -1.05801,-20.228482 -1.14545,-6.662463 -3.31723,-13.697963 -6.28287,-20.356183 -1.99109,-4.479677 -4.27974,-8.379393 -6.29634,-11.814994 a 184.57294,184.57294 0 0 1 -2.20621,-3.828974 c -2.8908,-4.678111 -3.79003,-7.455976 -2.9184,-9.012094 0.27734,-0.475775 0.73697,-0.825771 1.36605,-1.03686 1.65381,-0.553609 4.43363,-0.161293 8.04618,1.133623 3.58363,1.505331 10.60358,5.13336 17.35463,12.525162 6.32642,6.870555 11.56111,15.773409 14.7405,25.068699 3.26392,9.315098 4.69907,19.797858 4.03905,29.515693 -0.32128,4.29743 -0.8621,8.41636 -1.67394,12.33951 -24.68244,11.48028 -46.01434,29.87973 -61.68595,53.21343 l -0.0799,0.0519 c -9.8807,1.58657 -20.560793,1.15779 -30.071654,-1.21029 C 70.475932,163.82689 59.772241,158.4945 51.267754,151.47516 41.977094,143.9049 37.05339,135.56452 34.942917,131.26191 32.267702,125.20506 31.758898,120.87177 33.547766,119.37317 Z"
       style="fill:#668e25;fill-opacity:1;stroke-width:0.773833"
       id="path2" /><circle
       style="fill:none;stroke:#ff0000;stroke-width:7.42677"
       id="path842"
       cx="247.16069"
       cy="260.75964"
       r="164.88712" /></g></svg>
