<svg xmlns="http://www.w3.org/2000/svg" viewBox="0 0 512 512" style="width:256px;height:256px;opacity:1" xml:space="preserve"><path d="M19.346 140.019c.262-.223.568-.4.912-.524 2.003-.723 5.45.212 10.84 2.933 1.741.75 3.602 1.626 5.581 2.56 4.543 2.136 9.694 4.56 15.435 6.424 8.826 2.892 17.928 4.562 26.324 4.835 7.401.271 15.165-.553 23.039-2.063.629-.134 1.29-.252 1.902-.395-8.172-5.354-15.747-12.208-21.908-19.836-7.59-9.306-13.955-20.718-17.92-32.138-5.852-16.762-6.306-31.389-3.727-37.17.59-1.326 1.318-2.159 2.364-2.536l.03-.01c2.272-.632 5.407 1.792 9.577 7.41 1.78 2.202 3.65 4.82 5.684 7.675 2.492 3.493 5.318 7.455 8.509 11.362a182.984 182.984 0 0 0 4.758 5.784l.039.045a150.547 150.547 0 0 0 7.764 8.358 123.7 123.7 0 0 0 3.11 3.02c1.12 1.044 2.238 2.1 3.35 3.058 6.26 5.431 13.488 10.38 20.905 14.315a99.624 99.624 0 0 0 5.806 2.736 10.449 10.449 0 0 0 7.712.24c4.29-1.547 7.244-5.6 7.539-10.516.285-7.986-.285-15.583-1.697-22.59-1.45-7.42-4.057-15.231-7.542-22.6-2.34-4.958-4.998-9.26-7.34-13.05a206.419 206.419 0 0 1-2.564-4.225c-3.351-5.157-4.427-8.24-3.492-10.002.298-.539.803-.942 1.501-1.194 1.835-.661 4.953-.293 9.025 1.063 4.045 1.592 11.986 5.47 19.722 13.563 7.248 7.521 13.327 17.342 17.118 27.654 3.886 10.332 5.757 22.016 5.266 32.898-.25 4.813-.75 9.432-1.558 13.839-27.305 13.463-50.688 34.577-67.617 61.064l-.088.06c-11.007 2.025-22.959 1.817-33.653-.589-12.288-2.694-24.391-8.384-34.078-16.016-10.58-8.228-16.297-17.428-18.766-22.185-3.145-6.704-3.824-11.536-1.862-13.257z" style="fill:#668e25;fill-opacity:1;stroke-width:.865424"/></svg>