<?xml version="1.0" encoding="UTF-8" standalone="no"?>
<svg
   xmlns:dc="http://purl.org/dc/elements/1.1/"
   xmlns:cc="http://creativecommons.org/ns#"
   xmlns:rdf="http://www.w3.org/1999/02/22-rdf-syntax-ns#"
   xmlns:svg="http://www.w3.org/2000/svg"
   xmlns="http://www.w3.org/2000/svg"
   xmlns:sodipodi="http://sodipodi.sourceforge.net/DTD/sodipodi-0.dtd"
   xmlns:inkscape="http://www.inkscape.org/namespaces/inkscape"
   version="1.1"
   id="_x32_"
   x="0px"
   y="0px"
   viewBox="0 0 512 512"
   style="width: 256px; height: 256px; opacity: 1;"
   xml:space="preserve"
   sodipodi:docname="pomodoro.svg"
   inkscape:version="1.0.1 (3bc2e813f5, 2020-09-07)"><metadata
   id="metadata15"><rdf:RDF><cc:Work
       rdf:about=""><dc:format>image/svg+xml</dc:format><dc:type
         rdf:resource="http://purl.org/dc/dcmitype/StillImage" /></cc:Work></rdf:RDF></metadata><defs
   id="defs13" /><sodipodi:namedview
   pagecolor="#ffffff"
   bordercolor="#666666"
   borderopacity="1"
   objecttolerance="10"
   gridtolerance="10"
   guidetolerance="10"
   inkscape:pageopacity="0"
   inkscape:pageshadow="2"
   inkscape:window-width="1920"
   inkscape:window-height="1001"
   id="namedview11"
   showgrid="false"
   inkscape:zoom="1.4355469"
   inkscape:cx="256"
   inkscape:cy="257.12152"
   inkscape:window-x="-9"
   inkscape:window-y="-9"
   inkscape:window-maximized="1"
   inkscape:current-layer="g8"
   inkscape:document-rotation="0" />
<style
   type="text/css"
   id="style2">
	.st0{fill:#4B4B4B;}
</style>
<g
   id="g8">
	<ellipse
   style="fill:#4d4d4d;stroke-width:0.982267"
   id="path17"
   cx="-269.60486"
   cy="320.35645"
   rx="188.42993"
   ry="189.82314"
   transform="scale(-1,1)" />
	<path
   class="st0"
   d="m 56.518608,70.838965 c 0.373058,-0.146468 0.779917,-0.228855 1.213748,-0.240968 2.523017,-0.07044 6.138019,2.136527 11.370987,6.93535 1.734088,1.412153 3.561164,3.001781 5.505127,4.693186 4.462968,3.877954 9.522668,8.275456 15.441759,12.280821 9.090178,6.185716 18.902851,11.160786 28.376821,14.395636 8.34072,2.88335 17.4606,4.72254 26.93325,5.86761 0.76144,0.0768 1.5537,0.18271 2.2997,0.24392 -7.52565,-8.58932 -13.86978,-18.574149 -18.34547,-28.891257 -5.54415,-12.612181 -8.99037,-27.047624 -9.69928,-40.650138 -1.07897,-19.977669 3.28071,-35.779498 8.14628,-41.058347 1.11465,-1.2105802 2.22133,-1.8467142 3.53882,-1.8834981 0.012,-3.349e-4 0.023,-6.419e-4 0.037,-0.00103 2.79947,0.120917 5.56256,3.8122398 8.44012,11.2808397 1.29365,2.979056 2.5506,6.435322 3.91622,10.200676 1.67529,4.60904 3.57291,9.836115 5.90565,15.133074 1.13786,2.702297 2.30042,5.321871 3.49254,7.853586 0.009,0.01977 0.0192,0.04248 0.0287,0.06122 1.94742,4.144264 3.98263,7.992962 6.05879,11.660447 0.82612,1.461514 1.66444,2.894675 2.53653,4.318891 0.92647,1.508731 1.84927,3.029569 2.79513,4.444722 5.32242,8.002575 11.90638,15.827872 19.04415,22.635316 1.99419,1.842062 3.89488,3.488657 5.70167,4.960805 2.4477,1.997465 5.53921,3.047593 8.70598,2.959178 5.40289,-0.150848 10.11966,-3.449773 12.09456,-8.604898 2.98659,-8.44064 4.87099,-16.765475 5.59835,-24.752886 0.82268,-8.443249 0.45687,-17.71165 -1.05673,-26.812952 -1.01228,-6.123134 -2.60632,-11.655801 -4.01086,-16.5285 -0.55394,-1.92529 -1.07467,-3.735462 -1.51279,-5.41789 -2.09853,-6.6900381 -2.29614,-10.363954 -0.64295,-11.9206994 0.51804,-0.4716416 1.22823,-0.7255611 2.10789,-0.750121 2.3101,-0.064497 5.7399,1.4213591 9.92686,4.2996268 4.07665,3.1194406 11.83109,10.0497216 17.94571,21.4164976 5.74961,10.583657 9.40061,23.216682 10.2808,35.57293 0.98277,12.411407 -0.78187,25.562779 -4.96849,37.029087 -1.88953,5.05971 -4.00037,9.82448 -6.38968,14.25388 -35.59508,4.82931 -69.27269,19.21581 -97.38967,41.60925 l -0.12008,0.0344 c -13.2144,-1.69286 -26.76077,-6.10352 -38.14161,-12.42435 C 88.583449,137.85518 76.692625,127.52901 68.201759,115.97148 58.891075,103.46446 55.446222,91.62199 54.2196,85.668905 52.872224,77.397287 53.709689,71.991808 56.518608,70.838965 Z"
   style="fill:#4d4d4d"
   id="path6" />
</g>
</svg>
